<svg width="16" height="16" viewBox="0 0 16 16" fill="none" xmlns="http://www.w3.org/2000/svg">
<rect width="16" height="16" fill="white"/>
<path d="M8.57544 6.43738L9.93655 8.43738C10.3884 9.10125 9.91286 10 9.10983 10H7.60019C7.2916 10 7.0003 9.85753 6.81084 9.61394L5.25529 7.61394C4.7444 6.95708 5.21249 6 6.04464 6H7.74872C8.07969 6 8.38922 6.16376 8.57544 6.43738Z" fill="#1B15DA"/>
<path d="M3 4.5C3 2.567 4.567 1 6.5 1H14.4286C14.7442 1 15 1.25584 15 1.57143C15 3.46498 13.465 5 11.5714 5H3.5C3.22386 5 3 4.77614 3 4.5Z" fill="#1B15DA"/>
<path d="M13 11.5C13 13.433 11.433 15 9.5 15H1.57143C1.25584 15 1 14.7442 1 14.4286C1 12.535 2.53502 11 4.42857 11H12.5C12.7761 11 13 11.2239 13 11.5Z" fill="#1B15DA"/>
</svg>
