<?xml version="1.0" encoding="UTF-8"?>
<svg id="Layer_1" xmlns="http://www.w3.org/2000/svg" viewBox="0 0 30.97 18.87">
  <defs>
    <style>
      .cls-1 {
        fill: #202020;
      }
    </style>
  </defs>
  <g>
    <path class="cls-1" d="M8.29.41s.03.09.04.1c.01-.02-.05-.13-.04-.1Z"/>
    <polygon class="cls-1" points="8.83 .13 8.81 .18 8.93 .08 8.83 .13"/>
    <path class="cls-1" d="M9.54.24c-.03-.19-.27-.03-.38-.1l-.02-.04-.08.14c.15,0,.38-.06.48.01Z"/>
    <path class="cls-1" d="M9.83.7c0-.07.1-.04-.08-.04,0,0,0,.01.01.02.02,0,.04,0,.07.02Z"/>
    <path class="cls-1" d="M9.76.68c-.07-.01.03.07,0,0h0Z"/>
    <path class="cls-1" d="M10.11.74l-.11.03s.09.08.05.1c.11,0,.1-.05.06-.13Z"/>
    <path class="cls-1" d="M10.24.64h-.06s.02.04.06,0Z"/>
    <path class="cls-1" d="M10.06.67l.12-.02s0-.09-.06,0c.02-.05-.01,0-.07.02Z"/>
    <path class="cls-1" d="M10.01.63c-.04-.05-.11-.1,0-.13-.2-.03-.2.1,0,.13Z"/>
    <path class="cls-1" d="M9.62.07l-.07-.07-.08.05s.14.08.15.02Z"/>
    <path class="cls-1" d="M10.69,1.02s0-.11,0-.16l-.09.02s.09.08.08.14Z"/>
    <path class="cls-1" d="M10.7.86l.13-.02c-.09-.04-.12-.02-.13.02Z"/>
    <polygon class="cls-1" points="10.32 .45 10.1 .53 10.35 .46 10.32 .45"/>
    <polygon class="cls-1" points="11.09 1.17 11 1.23 11.16 1.14 11.09 1.17"/>
    <path class="cls-1" d="M11.37,1.26c-.07.05.02.14-.05.16.08.02.16-.02.24-.05-.07,0-.13-.03-.19-.12Z"/>
    <path class="cls-1" d="M11.69,1.33s-.08.02-.13.04c.04,0,.08-.01.13-.04Z"/>
    <path class="cls-1" d="M11,.92s0,.09.05.13v-.12s-.05-.02-.05-.02Z"/>
    <path class="cls-1" d="M11.04.93h0s.08.04.09.04c-.01,0-.04-.02-.09-.04Z"/>
    <path class="cls-1" d="M10.99.92h.01s0-.01-.01,0Z"/>
    <path class="cls-1" d="M10.57.64c.08-.04.24-.05.14-.18-.07.05-.01.13-.14.18Z"/>
    <path class="cls-1" d="M10.98.77l-.11-.06s0,.07-.04.09l.15-.03Z"/>
    <polygon class="cls-1" points="11.05 .76 10.98 .77 11.02 .79 11.05 .76"/>
    <path class="cls-1" d="M11.53,1.16c.07-.02.12,0,.19.01-.06-.05-.12-.08-.18-.11-.02.03-.07.07,0,.1Z"/>
    <path class="cls-1" d="M11.3,1.04h.01s0-.02-.01,0Z"/>
    <polygon class="cls-1" points="12.31 1.43 12.31 1.41 12.3 1.42 12.31 1.43"/>
    <path class="cls-1" d="M11.53,1.04s-.08-.03-.12,0c.04,0,.08.01.12.03,0-.01.01-.02,0-.02Z"/>
    <path class="cls-1" d="M11.87,1.36s-.04-.06-.06-.09c.01.04.04.11.06.09Z"/>
    <path class="cls-1" d="M11.32,1.07h0s0,.02,0,0Z"/>
    <path class="cls-1" d="M11.32,1.07s.06-.02.09-.04c-.03,0-.07,0-.09,0,0,0,0,.02,0,.03Z"/>
    <path class="cls-1" d="M12.77.88c-.05.09-.22.11-.29-.04-.14.02-.2.35-.18.56.02-.04.04-.07.17-.08-.02-.07-.2-.23-.07-.27.17.02.11.09.16.17-.01-.14.26-.08.31-.26h-.16s.08-.05.05-.09Z"/>
    <path class="cls-1" d="M12.1,1.3h-.05s.07.08.11.18c.1-.01.13-.04.14-.07l-.22-.11h.02Z"/>
    <path class="cls-1" d="M11.84,1.21c.08-.09.21-.08.18-.22-.14-.05-.13.04-.23.05.23.06-.09.03.05.15-.05,0-.09-.01-.13-.02.03.03.07.06.09.09h0s0,0,0,0h0s0-.03,0-.02h0s.02-.02.03-.03c.06.05,0,.03-.03.03h0s0,.02,0,.02l.24.04s-.1-.06-.21-.09Z"/>
    <path class="cls-1" d="M10.91.28s0,.02,0,.03c.02,0,.03-.01,0-.03Z"/>
    <path class="cls-1" d="M10.98.37s-.05.04-.1.02c-.04-.05.02-.05.03-.08-.04.02-.14.03-.05.12h.02c.08.06.15.23.13.23,0-.1,0-.17-.02-.28Z"/>
    <path class="cls-1" d="M11.44.76l.21.02-.06-.12-.02.05c-.1-.06-.1.01-.13.05Z"/>
    <polygon class="cls-1" points="12.31 1.49 12.24 1.58 12.41 1.48 12.31 1.49"/>
    <polygon class="cls-1" points="12.55 1.58 12.5 1.67 12.59 1.64 12.55 1.58"/>
    <path class="cls-1" d="M14.11,11.44l-.03.06s.03-.04.03-.06Z"/>
    <path class="cls-1" d="M14.47,11.19l-.02-.05s0,.05.02.05Z"/>
    <path class="cls-1" d="M17.66,4.95c-.03.11-.12.24-.03.18l.08-.08s-.05-.06-.05-.1Z"/>
    <path class="cls-1" d="M16.83,8.43h.04s-.02-.07-.03-.11c0,.03,0,.07,0,.11Z"/>
    <path class="cls-1" d="M17.11,8.79l-.13.04s.08-.01.13-.04Z"/>
    <path class="cls-1" d="M12.13,12.83v.13c.09-.06.02-.08,0-.13Z"/>
    <path class="cls-1" d="M14.9,2.76c.04.07.08.12.12.15-.04-.1-.06-.22-.12-.15Z"/>
    <path class="cls-1" d="M13.59,10.4s-.02.06,0,.08c.02-.04.02-.07,0-.08Z"/>
    <path class="cls-1" d="M15.2,3.02s-.01-.03-.02-.04c-.05-.01-.11-.03-.16-.07.03.07.08.14.18.11Z"/>
    <path class="cls-1" d="M4.27,16.42s-.01,0-.02,0c0,.01.01.01.02,0Z"/>
    <path class="cls-1" d="M1.55,16.21s.06-.03.09-.04c-.02,0-.05,0-.09.04Z"/>
    <path class="cls-1" d="M13.46,2.07c-.05-.02-.01,0,0,0h0Z"/>
    <path class="cls-1" d="M13.41,1.57s.03-.02.04-.04c-.02.02-.03.03-.04.04Z"/>
    <path class="cls-1" d="M16.03,2.75h0s0-.02,0,0Z"/>
    <path class="cls-1" d="M13.41,1.99s.03.04.05.06c0-.01-.02-.03-.05-.06Z"/>
    <path class="cls-1" d="M13.4,2.04s-.03-.02-.04-.03c-.01.01-.01.03.04.03Z"/>
    <path class="cls-1" d="M13.53,2.1s-.05-.03-.07-.05c0,.01,0,.02,0,.02.02,0,.04.01.07.03Z"/>
    <path class="cls-1" d="M8.4,14.33s0,0-.02,0c-.03.06-.01.05.02,0Z"/>
    <polygon class="cls-1" points="18.9 6.06 18.9 6.05 18.9 6.06 18.9 6.06"/>
    <path class="cls-1" d="M18.91,6.31c-.1-.14-.07-.18-.02-.25h-.32c.12.07.23.16.34.25Z"/>
    <path class="cls-1" d="M13.25,12.05h.17c-.06.23-.2.26,0,.3-.16-.29.46-.34.28-.63h.12s-.02.04-.04.05c.24.03-.02-.28.2-.37.08-.03.16-.02.13.05l.1-.18s.07.03.02.06l.21-.19h0c0-.06.03-.18.04-.23.09,0,0,.05.03.07l.08-.16c.1.03.05.18-.04.23.32.19.05-.15.42-.18l-.09.12c.19.1.24-.03.45-.04-.07-.02-.45-.04-.37-.21.05,0,.11-.04.14-.15.07.1.13.02.21-.06l.09.13c.07-.11,0-.17.02-.27.12-.07.21,0,.31.07.19-.12-.24-.06-.06-.24.18-.06.23-.2.33-.41.13-.04.05.09.11.09v-.17s.04.02.05.04c.04-.1-.1-.13-.02-.25-.09-.15.4-.02.4-.29.06,0,.05.09.1.12.09-.27.1-.21.12-.49l.2-.05c-.18,0-.16-.21-.15-.39-.07,0-.14-.02-.17-.01l.09-.22s.06.05.09.12v-.06c.1-.02.14.08.16.18-.04,0-.09,0-.13,0,.03.11.07.22.15.28,0-.02,0-.06.02-.08,0,.03.02.05.04.06.02,0,0-.04,0-.09l.17.08-.04-.06c.1-.05.19-.1.29-.15,0-.29-.06-.59.08-.91.05.15.16.14.28.24-.19-.02-.11.26-.25.37.07-.06.12,0,.12.04.03-.11.06-.23.09-.35.1.08.12,0,.21-.03-.24-.1.01-.29.02-.44.07.04.13.12.02.24.27-.03-.11-.36.11-.41-.02.03-.04.05-.01.08-.01-.12.15-.28.19-.2l-.02.03c.17-.2.38-.74.18-.85.03,0,.23.12.26.16-.17-.25-.36-.47-.55-.65.17.08.64,0,.67.26.05-.06.1-.14.05-.3-.03.05-.27.07-.28,0,.22-.14.12-.09.32-.31-.05.07-.31-.02-.32-.12.04.02.28-.03.32.02-.11-.11-.2-.21-.33-.27.07.05.24-.04.28-.15-.04.04-.1-.27-.17-.32v.14c-.12-.32-.49-.06-.64-.29.07-.01.34-.16.27-.29-.16.03-.71.23-.94.16l.03-.09-.19-.05c.22-.09.77-.2,1.03-.16-.03-.13.05-.09-.07-.21.01-.1.15-.02.19.02l-.24-.32c-.1.13-.33-.08-.41.04.14.05.28.09.42.16-.11.12-.5.17-.67-.02,0-.09.23-.19.27-.24-.06.02-.26-.08-.25-.13h.14c-.07-.14-.32.02-.36-.21-.04-.04,0-.28-.08-.21-.04.21-.39.69-.53.77,0-.02-.12-.33-.12-.44.01-.18.33-.21.34-.36-.03.03-.11.05-.14.05-.03-.07.1-.1-.02-.16-.12.13-.21-.17-.14.08-.13-.04-.09-.11-.22-.19-.02.12-.32.23-.46.2.03-.03.04-.1.04-.12-.21-.15-.29-.3-.5-.43,0-.05-.07-.15,0-.19-.05,0-.1.04-.17,0-.05-.2.16.07.15-.14-.06.08-.24.02-.37.01-.05.15.2.15.33.16-.11.18-.38.27-.65.23-.2-.06,0-.16-.05-.15-.31-.22-.46.16-.66-.12-.05-.18.12-.24.14-.34.17.03.18.2.28.25l-.09-.12c.07-.01.18.01.21.07-.03-.16-.55-.33-.77-.56-.07.02-.17.02-.16.08l.09.03c.03.13-.22.06-.14.15-.15.01-.32.06-.45-.07l.04-.15s.06.13.13.11c-.09.03-.15-.3-.31-.16l.06.15c-.15.02-.35.1-.47-.01,0,.17.04,0,.06.21,0-.24.35.18.31-.1.01.23.14.16.19.38.02-.05,0-.11.1-.03.01-.01.03-.02.05-.03h0s0,0,0,0c0,0,0,0,0,0-.02-.03-.03-.07-.02-.1.11-.08.29.02.38,0,.06.06-.05.04-.04.1l.13-.03c-.04.1.09.26-.1.23l.14.08c.05.1.16.18.25.18.05.06.23-.02.13.03l.25.06v.03c.19.14.53.1.66.42.09.02.18.03.28.14l-.03.1c.11.03.21.25.31.2-.05.28.39.33.51.48l.08-.1c.1.08.21.13.37.18l.06-.09c.16.01.22.28.38.41-.04.02-.07-.02-.08-.07,0,.35.52.23.52.52.07.01.08.05.08.1,0,0,0,0-.01,0v.02s0,.06,0,.09c0-.03.02-.06.01-.08.03.03.07.07.12.1l-.09.09h.01c0,.07.07.01.13-.06.04.01.07.02.1.02-.16.13.14.1-.05.22.11,0,.12.13.32.17-.03,0-.04.02-.04-.01-.03.06-.06.12-.01.19h-.15c.06.06.13.12.19.19-.12.07-.18.09-.27-.02.11.25.02.17.13.41l-.09-.04c-.01.06.05.22-.04.22-.22.06-.37.68-.79.89.28.11-.22.07-.05.22-.07-.02-.13,0-.14-.09-.08.2-.29.16-.24.4-.07-.03-.05-.1-.09-.11,0,.02,0,.09-.04.08-.04-.01-.02-.06-.02-.11-.13.17.01.33.14.47-.15.02-.18.06-.14.21-.07-.02-.17-.02-.09-.13-.06.05-.39.27-.29.38-.05-.01-.09.06-.09.09-.13.11-.15.11-.27.24h.05c.08.18-.07.12-.16.22v-.02c-.34.1-.07.14-.41.22l.09.08c.14.22-.31.06-.39.25h.09c-.02.14-.44-.09-.53-.05-.03,0,0-.05.02-.08-.29.04.07.15-.06.29-.08-.05-.1-.2-.21-.13-.09-.02-.13.45-.37.42.07.03.14.06.1.15-.1.1-.45.02-.43.26-.02,0-.04-.01-.05-.03-.05.11-.23.27-.22.4-.31-.29-.44.54-.64.21l-.26.19v-.04c-.2.09-.22.2-.23.32-.05,0-.04-.05-.05-.07-.3.09-.31.12-.44.41l-.08-.09c-.03.1-.47.05-.67.31,0-.01-.01-.04,0-.06-.23.29-.87.08-.77.54l-.15.2c.27-.1.05.19.19.21-.09.08-.32.01-.21-.07h.03c-.06-.22-.36.1-.42-.05-.5.27-1.05.39-1.53.62l.13.14-.17.07c-.06-.02-.12-.1,0-.15-.11-.06-.16.17-.15.21-.27.04,0-.24-.07-.21l-.09.06h.03c-.05.11-.02.19-.17.25-.11,0-.09-.08-.13-.07,0-.01-.02-.01-.06.02l-.22.08.14.09c-.06.11-.2.09-.04.19-.25-.16-.83.27-.95.24-.09.16-.22.21-.39.27.05.01.14.15,0,.19-.08-.33-.31-.02-.52-.2.16.11-.38.2-.14.35-.13.02-.06-.11-.17-.15-.23.23-.65.17-.98.35.01.04.09.08.04.17l-.26-.13c-.06.05.03.26-.15.17.03.03.08.07.04.1-.76.06-1.35.68-2.18.53.12.05.06.08-.01.11.05,0,.03.1.06.16l-.35-.07c0,.18-.31.11-.3.27l.09-.05c-.07.22.29.35.34.58.08-.25.47.18.61-.18.07.03-.02.09.02.13.03-.12.09-.16.24-.16v.03c.36-.15.55-.11.98-.19l-.07-.1c.09-.02.13.01.18.02.04-.21-.25.08-.23-.14.2.19.62-.23.8,0,.14-.05-.09-.11.05-.16l.06.06v-.1c.09-.02.17.05.2.11-.02,0-.06.04-.08.05.15.04.31-.15.36-.14h-.15c.35-.2.83-.29,1.13-.57l-.05-.04c.23-.21.24-.03.52-.2v.02c.03-.08.1-.14.18-.16-.05.09.19.06.12.17.25-.23.11-.14.22-.42l.08.07c.03-.11.02-.15.15-.24-.09.13.15.09.06.24.39.05.37-.39.63-.18.03-.3-.32-.01-.27-.1-.1-.05.04-.23.14-.25.1-.04.3.22.54.1-.02.01-.02.03-.04.04.12.02.14-.16.3-.12,0-.17.15-.06.08-.25l-.2.15c.1-.11.13-.37.38-.37,0,.04-.04.12-.07.17.09.02.1-.09.19-.07.07.19-.25.17-.32.37.1.04.2-.25.22-.02-.02-.29.25-.08.33-.35l.04.11s.05-.11.1-.13l-.02.18c.08-.18.31-.02.4-.15-.27.13-.12-.1-.27-.12.26-.3.33.19.67-.05-.04.04-.22.03-.17-.06.08-.01.19-.02.26.01.23-.15-.09-.09-.02-.21.15.09.09-.11.18-.21l.06.11c.31-.07-.04-.26.25-.3l-.03.2.11-.1.04.14c.09-.16.15-.16.31-.2-.07-.06-.08-.2.03-.27.12.02,0,.13.17.02,0,.09,0,.19-.13.14.01.04,0,.09,0,.13.13.02.23-.1.29-.14-.03,0-.06.02-.08.01l.17-.28c.06.02.05.07.03.12.04-.04.05-.11.12-.16.03.1.08.18,0,.28l.19-.22s.18.04.16.09c.16-.02.23-.34.44-.38,0-.02,0-.05.04-.08.18-.07.38-.06.5-.29l.2.08c.13-.12-.26-.1-.05-.31.14-.16.14.09.23.09.04-.13.09-.38.33-.36-.03.06-.09.07-.13.11ZM14.97,10.76s-.04.16-.1.12c-.04-.14.02-.11.1-.12ZM17.22,8.36s-.04.07-.11.08c.02-.03.05-.06.11-.08ZM14.04,2.26h0c.06.08.04.05,0,0ZM13.9,2.13s-.03.02-.03.04c.03-.02.06,0,.1.03,0-.03,0-.06-.07-.07ZM7.51,13.85h.05c-.06.08-.05.04-.05,0Z"/>
    <path class="cls-1" d="M17.08,8.75s-.04-.02-.06-.03c0,.03.02.04.06.03Z"/>
    <polygon class="cls-1" points="12.13 12.81 12.13 12.81 12.13 12.83 12.13 12.81"/>
    <path class="cls-1" d="M16.93,2.79s.03.07.03.1c.02-.02.02-.05-.03-.1Z"/>
    <path class="cls-1" d="M12.93,1.87l.12.02c-.05-.02-.06-.05-.08-.08,0,.03,0,.07-.04.06Z"/>
    <path class="cls-1" d="M12.29.76s-.04-.01-.06,0l-.02.05c.07.03.14,0,.07-.05Z"/>
    <path class="cls-1" d="M13,1.46c.03-.1-.05-.1-.13-.12h.01c-.08.12.02.12.12.12Z"/>
    <path class="cls-1" d="M12.85,1.34s-.05-.02-.07-.03c-.03.05.02.02.07.03Z"/>
    <path class="cls-1" d="M13.66,2.08s-.08.1-.08.06c-.1.09.3-.02.08-.06Z"/>
    <polygon class="cls-1" points="13.08 1.13 13.06 1.26 13.14 1.18 13.08 1.13"/>
    <path class="cls-1" d="M13.65,1.51l-.11-.09s-.03.02-.05.02c.07.04.14.1.16.07Z"/>
    <path class="cls-1" d="M13.49,1.44s-.08-.04-.11-.03c.02,0,.07.03.11.03Z"/>
    <polygon class="cls-1" points="13.27 1.18 13.29 1.22 13.38 1.27 13.27 1.18"/>
    <path class="cls-1" d="M14.91,2.22l.15.04s.01-.07-.04-.09c-.05,0-.1,0-.1.04Z"/>
    <path class="cls-1" d="M14.69,1.7s.01.07.01.12l.08-.13-.09.02Z"/>
    <path class="cls-1" d="M15.09,1.88s.25,0,.08-.08c-.03.03-.18-.02-.08.08Z"/>
    <polygon class="cls-1" points="16.86 3.27 16.83 3.25 16.69 3.46 16.86 3.27"/>
    <path class="cls-1" d="M18.79,4.31c-.08-.21-.16.05-.21-.15-.08,0,.04.16-.03.15.12.06.13.14.24,0Z"/>
    <path class="cls-1" d="M18.56,4.31s-.04-.02-.07-.03c.03.02.05.03.07.03Z"/>
    <polygon class="cls-1" points="1.13 16.2 1.01 16.18 1.1 16.24 1.13 16.2"/>
    <path class="cls-1" d="M.98,16.44l-.07-.15-.02.16s.06-.04.09,0Z"/>
    <path class="cls-1" d="M15.43,10.82l-.02-.04s-.06,0-.11.02l.13.02Z"/>
    <polygon class="cls-1" points="14.08 11.65 14.11 11.64 13.98 11.55 14.08 11.65"/>
    <path class="cls-1" d="M13.08,12.54s.09-.09.13-.11c-.09.09-.24-.04-.13.11Z"/>
  </g>
  <g>
    <path class="cls-1" d="M13.23.43s-.04-.02-.05-.03c.05,0,.08,0,.05.03Z"/>
    <path class="cls-1" d="M12.5.27c.19,0,.49.02.67.13-.17.01-.62.14-.67-.13Z"/>
    <path class="cls-1" d="M13.22.87l-.22-.1c.14-.06.1.06.22.1Z"/>
    <polygon class="cls-1" points="13.16 .61 13.18 .51 13.29 .62 13.16 .61"/>
    <path class="cls-1" d="M23.88,5.75s.08-.06.14-.06l-.14.06Z"/>
    <path class="cls-1" d="M23.53,6.41c-.01.05-.02.09-.02.12-.01-.03,0-.06.02-.12Z"/>
    <path class="cls-1" d="M23.7,5.2l.05.11s-.04-.07-.05-.11Z"/>
    <path class="cls-1" d="M18.59,1.38c-.06-.1-.11-.2-.15-.27.2,0,.15.16.15.27Z"/>
    <path class="cls-1" d="M22.01,8.82l.08.03s-.07.03-.08-.03Z"/>
    <path class="cls-1" d="M22.21,6.65s.08,0,.11,0l-.02.03-.09-.03Z"/>
    <path class="cls-1" d="M23.39,4.83h-.01s0-.11,0-.11c.04.04.04.07,0,.11Z"/>
    <path class="cls-1" d="M21.83,9.57s-.11.06-.18.08c.04-.07.12-.1.18-.08Z"/>
    <path class="cls-1" d="M23.51,6.54h0s0-.01,0-.01c0,0,0,0,0,.01Z"/>
    <path class="cls-1" d="M22.21,5.99s-.01.06-.02.11c-.03-.04,0-.08.02-.11Z"/>
    <path class="cls-1" d="M18.59,1.38l.05.09s-.04-.05-.05-.09Z"/>
    <path class="cls-1" d="M13.87.32c.08,0,.09.07.09.12-.04-.03-.07-.07-.09-.12Z"/>
    <path class="cls-1" d="M30.54,17.82h.03s-.02,0-.03,0Z"/>
    <path class="cls-1" d="M28.16,16.32s0-.05,0-.07c.03,0,.02.03,0,.07Z"/>
    <path class="cls-1" d="M24.85,16.33c.23.03.25.34.38.46v-.11s.1.17.1.17l.08-.11c.19.22.57.32.53.56l.1-.2.15.32-.06-.23c.3.16.65.59.71.63l.02-.09c.07,0,.08.06.11.12l.03-.13c.42.3.69.13,1.11.54.15.05-.06-.08-.02-.14.12-.05.25.13.26.21.06-.19-.18-.26.05-.31.07.15.01-.2.19-.06l-.04.27c.13.02.12-.16.28-.05.15.2-.38.12-.07.33.18.07.61-.34.87-.07.33.01.03-.42.37-.19l-.17-.26c.09-.04.11-.17.24-.04,0,.11.06.27.14.32-.27-.33.42-.13.2-.5l.11.06s0-.04.01-.05l.16.05c-.08-.09-.29-.22-.11-.34l.24.06c0-.16.1-.17.13-.28-.18-.18-.35-.35-.52-.53-.01.09.06.18-.01.24-.2-.02-.07-.2-.28-.18l.02.13s-.01-.07.03-.06c.09-.04.07.05.04.11-.12.1-.24-.06-.24-.18-.21-.09-.16.21-.22.22,0-.27-.35-.17-.43-.34v.18c-.24.08-.31-.14-.37-.24l-.03.13c-.21-.14-.53.15-.47-.33l-.02.09c-.11-.02-.29-.02-.31-.19-.03.04-.08.09-.12.08.05-.18-.12-.12-.26-.18.06.09-.09.27-.03.37-.33.06-.05-.33-.22-.44-.16.03.02.16,0,.25-.19-.27-.83.07-.73-.41l.19-.04c-.05-.15-.1-.19-.11-.14.04.01.03.05.01.1-.44-.03-.28-.61-.63-.76-.03.08,0,.14-.05.2-.19-.04.13-.45-.19-.48l-.02.11c-.11-.01-.07-.17-.04-.18-.25.29-.44-.38-.91-.14.03-.25-.14-.63-.3-.63-.28.05-.07.29-.26.4-.1-.09,0-.3-.2-.38.15-.15.58-.03.41-.37l-.12.04s.11.02.12.08c-.01.16-.15.06-.2.08-.08-.11-.15-.22-.23-.33.15-.17.27.03.32,0-.23-.18-.77-.26-.77-.56l-.06.07c.02-.36-.49.05-.25-.37-.1-.12-.2.14-.3-.07-.02-.06.07-.05.1-.05-.01-.28-.24-.07-.1-.37l-.22.1c.09-.37.5-.71.39-.97-.19.02-.16.19-.3.26.31-.38.04-.91.25-1.26.15.11.37-.14.49.09-.24.04-.09.15-.13.27.53-.15-.2-.82.26-.84l-.18-.07c.03-.05.18-.17.23-.07l-.08-.41c-.15.13-.5.39-.31.49-.21.09-.11-.17-.35-.09.33-.23-.11-.17-.02-.44.25.15.39-.24.51-.21-.04-.09.1-.29.2-.36.04-.16-.14-.55-.04-.81-.09.1-.21.25-.38.22.1-.12.11-.26-.09-.3-.39.43.45.18.18.57-.23.08-.3.19-.38.39-.12-.11-.18-.07-.33-.12.5-.21.1-.65.35-.97.15-.14.44-.01.5-.35l.14.29c-.12-.32.14-.07.2-.34l-.15.1c-.03-.16,0-.22.11-.31l-.24.14c-.03-.09-.06-.25.08-.25-.06-.02-.1-.03-.15-.03.04-.02.07-.06.05-.16-.02.06,0,.11-.08.11.03-.39-.26-.08-.26-.32-.05.04-.13-.02-.16-.1.39-.02.37-.51.54-.69h0c.02-.12.07-.25.07-.39,0,.08-.13.03-.2-.06v.02c-.08-.09-.34.24-.34-.1l.05-.2s-.07.03-.1.02c.02-.07.02-.14.02-.21-.45-.08-.06-.59-.45-.76.09.06.16.19.03.21-.08-.02-.1-.12-.09-.2l-.02.04c-.08-.22-.17-.44-.26-.61-.05.12.18.34-.03.35-.18.07-.17-.17-.24-.25.08-.07.28,0,.17-.17-.05.02-.25-.02-.24.09-.08-.2-.25-.44-.28-.69-.07,0-.03.09-.01.11h.03c.05.11-.15.2.09.27-.19.26-.3-.15-.5-.23l.11.36c-.68.03-.95-.76-1.41-1.04.18,0,.24.14.36-.08-.22-.28-.21-.21-.47-.42l.02.03c-.21.03-.3-.3-.51-.15,0,.16.28,0,.14.25l-.35-.21c.04.21.35.21.47.32.11.04-.18-.14-.04-.28.34.19.32.4.34.72,0,.23-.24.09-.3.05-.05-.37-.31-.66-.7-.71l-.28.1c-.08-.25.15-.57-.18-.66l.03.18c-.09.02-.14.02-.18,0,.09.17.17.35.23.51-.31.22-.42-.37-.65-.54,0,.04.08.09.08.18-.41-.07-.67-.61-.97-.75-.18.09.23.17.09.35-.13-.13-.37-.01-.35-.21-.02.29-.37-.1-.15.25-.6-.07-1.17-.47-1.74-.76.01.09,0,.16-.04.21.2.04.48.19.54.4-.16.11-.26-.26-.32-.18.05.08.18.11.15.25-.2.12-.25-.12-.36-.18l.08-.06c-.34-.26-.11-.52-.53-.52-.18.14-.02.14-.06.35-.08-.1-.42.08-.49-.16l.25.02c-.16-.08-.32-.11-.43-.2,0,.05.01.09.04.12-.13-.09-.31-.09-.36-.24l-.06.22c.09-.09.34-.08.36.05-.05.19-.28.04-.39.05.47.12.42.47.83.38l-.06-.08c.27-.13.48.2.69.23-.07.03-.1.11-.08.16.5-.08.93.16,1.48.2l.09.26.06-.16c.27,0-.02.25.15.28-.06-.02-.04-.04-.04-.09.23.28.21-.1.36,0-.02-.2-.3-.16-.15-.37.24.27.72.34.62.74.59.04,1.12.56,1.5.82.09-.03,0-.07.04-.11.05.29.63.14.52.34.1,0,.22-.12.27-.15.05.15.14.27.25.37l-.06-.11.03-.02.09.15h-.01c.28.26.65.49.77.86-.06-.23.2-.17.18-.29-.08.38.21.64.48.83.05-.05.11-.08.12-.14.02.08,0,.14,0,.21l.05-.07c.24.16.03.59.24.65,0-.11.05-.14.15-.19.08.17.13.38.09.63.02-.02.04-.03.06-.04.04.06-.03.16-.06.23l.17-.02c-.05.14.06.31-.07.48.2.05-.15.4-.08.6-.04.08.2-.16.18.05-.37.02-.01.28-.41.28l.13.2-.2.03c.36.19-.18.23-.08.48.04,0,.06-.03.09-.02-.05.08-.09.26-.18.11,0,.13-.14.57.09.39-.11,0,0-.17.05-.25.17.03.08.22.26.29-.02,0-.05.03-.08.05l.1.04c-.21.24-.1.51-.36.68.05.02.09.07.07.16l-.21-.02-.02.28.32-.11c.03.31-.33.52-.4.78.35.08-.15.55.17.79.03-.08.06-.15.1-.22-.05.48.16.54.1,1.02-.18-.39-.09-.39-.41-.95.08.28.05.54.03.79,0,.27,0,.55.19.83.06-.07.08-.23.2-.11-.14.17.21.56-.02.55.13.16.34.11.43.2.03.22.12.54.16.71l.02-.04c.93.35.87,1.42,1.66,1.83l.06-.1.05.26c-.06-.19.15-.06.22-.13l.26.53c.07-.07.19-.27.06-.31ZM21.92,9.75l.03-.12s0-.05.02-.08l-.02.08c.02.06.11.12-.03.12ZM17.81,2.21c-.01-.11.08,0,.13,0l-.16-.09s.02.07.04.09ZM23.29,9.86l.14.08-.12.07-.02-.15ZM23.23,11.5c.02-.05.05-.11.08-.16h.03c-.03.07-.05.12-.07.17h-.03ZM22.73,13.78s0-.03,0-.05c0,.02,0,.03,0,.05.02.23.25.09.14.34-.25.03-.15-.19-.14-.34ZM22.11,10.37c.03-.06.05-.08.03-.13-.09.02-.22.13-.24.05.1-.05.14-.25.28-.24-.17.16.22.31-.07.33ZM22.42,6.57l.02.04.1-.15-.12.11ZM22.47,5.93c.18-.12.07-.29.07-.43-.16.02-.29.2-.23.33-.09.2.25,0,.16.1ZM22.37,11.76l.12-.06.02.04.07-.18c.19.22-.13.4-.16.54-.01-.12.29-.42-.05-.35ZM22.03,4.78c.02-.16-.06-.45.03-.52-.16.17-.1.39-.07.43.03.02.04.04.04.09ZM22.38,4.49c.05.23-.02.3-.15.55-.16-.1.03-.3.16-.37,0-.18-.11-.06-.18-.1l.17-.08ZM21.97,5.05s.05.02.06.04c.12.01.37-.1.18.14l-.18-.14s-.05-.01-.06-.04ZM20.79,3.95l.02.12c-.06-.06-.05-.09-.02-.12v-.1c.19.04.06.05,0,.1ZM21.82,4.75l.1.17c.08-.08-.05-.14-.1-.17ZM20.96,3.81c.1.05.33.19.29.18-.1.08-.28-.09-.29-.18ZM16.07,1.12l.15.05-.12.14-.03-.2ZM17.93,1.59l-.07.06-.08-.05.15-.02ZM19.54,2.33s-.04.07-.05.11c.02.03.03.06.02.09-.02-.01-.03-.05-.02-.09-.04-.07-.15-.1-.21-.07-.01.09.09.12.1.19-.23.1-.27-.6-.44-.04-.02-.1-.17-.33-.05-.38.15.1.48.22.66.19.02-.02.05-.04.08-.03-.02.01-.05.02-.08.03ZM21.6,3.55c.04.06.05.09.05.11.02.07,0,.15-.06.2-.06-.15.05-.14.06-.2-.01-.04-.03-.08-.05-.11ZM21.95,3.81l-.1-.23v.17s-.1-.4-.1-.4c.22.04.28.33.19.46ZM22.08,3.77l-.06.13.04-.15.02.02v-.03s.24.31.24.31l-.24-.28ZM23.15,7.34c.48.15.34-.33.57-.41-.16-.01-.41-.15-.4.22-.16-.31.31-.21-.1-.38.05.15-.09.33-.1.36l-.02-.17c-.3.1.14.27.05.39ZM23.08,9.24l-.03.23.06-.22-.03-.02ZM24.62,14.37c.07-.09.42-.04.33.16-.13-.08-.24-.2-.33-.16ZM26.49,15.95l-.15-.23c.19-.18.18.15.3.18-.04.13-.07,0-.15.05ZM27.9,16.89l.05.08.06-.26-.11.18ZM27.98,16.55c.1-.07-.02-.21-.06-.22l.06.22ZM29.38,17.1l-.1-.04-.02.24.12-.21ZM29.11,17.26c.06-.15.17-.34-.1-.36-.09.14-.03.17-.21.3.05.08.14.04.19.05-.03-.05-.13-.02-.09-.13.11-.01.18.05.2.13-.02.05-.03.11-.02.14.02-.05.03-.1.02-.14ZM28.24,16.97s-.07,0-.1.02v-.04c.08-.05.09-.02.1.02.04,0,.09,0,.13,0,.1-.11,0-.28,0-.37.05.08.04.23.17.21,0-.04.04-.06-.02-.09l.14.05c.04.26-.12.23-.29.21-.02.02-.05.05-.09.06-.03,0-.03-.04-.04-.07ZM29.13,17.83l-.05-.07c-.01-.07.04-.11.05-.15.08.06.15.2,0,.23ZM25.01,15.1c.07,0,.08-.21-.04-.25l.19-.12c-.09.11.11.26.12.28-.09.18-.11.05-.27.09ZM22.85,10.04c.27-.02.14-.35.22-.41.04.17.07.54-.22.41ZM22.79,9.48c.01-.08-.01-.11.12-.09.06-.04,0-.11.05-.15.1.18-.11.15-.18.24,0,.02,0,.05-.02.08,0-.04,0-.06.02-.08ZM22.93,12.92l-.14.2c.03.06.08.12.12.18-.02-.13,0-.26.02-.38ZM23.92,14.76c.07-.09.22.06.22.12.09-.12-.02-.2-.09-.29,0-.02-.01-.04-.04-.07,0,.02.02.04.04.07,0,.05-.07.09-.1.13h-.07s.08.13.08.13l-.03-.09ZM26.53,17.07c.17-.02.16.02.21.1-.05.03-.16-.02-.21-.1ZM23.09,14.07c.2.12.1-.23.25-.16l-.09-.08c.24.04-.04.21.08.28l-.08-.05c-.15.04.01.17-.06.25-.12-.04-.19-.3-.11-.25ZM26.65,17.26c.26,0,.06.22.15.32-.21.02-.04-.2-.15-.32ZM23.75,15.38h-.03s.08.19.08.19h.03s-.08-.19-.08-.19Z"/>
    <path class="cls-1" d="M27.68,16.16c.05.01.08.03.09.06-.03-.01-.06-.03-.09-.06Z"/>
    <path class="cls-1" d="M23.85,9.08s-.06-.03-.07-.05c.02,0,.04.02.07.05Z"/>
    <polygon class="cls-1" points="23.98 8.69 23.98 8.67 23.99 8.66 23.98 8.69"/>
    <path class="cls-1" d="M14.02.15c-.06-.19.09-.02.16,0-.07,0-.11.11-.16,0Z"/>
    <path class="cls-1" d="M14.51.53c-.03-.06-.08-.1-.15-.13.05,0,.09.03.15.13Z"/>
    <path class="cls-1" d="M14.09.38c.11-.02.2-.01.27.01-.07,0-.14.06-.27-.01Z"/>
    <path class="cls-1" d="M15.95.77c-.06-.13-.23-.11-.23-.11.38-.02-.02-.22-.03-.31.21.09.18.22.26.42Z"/>
    <path class="cls-1" d="M16.4.95s-.07-.01-.1,0c.04-.02.07-.01.1,0Z"/>
    <path class="cls-1" d="M16.55.88c.11.06.12.19.14.3-.17.04-.2-.17-.3-.23.09.02.16.06.16-.07Z"/>
    <path class="cls-1" d="M20.38,1.84s-.08-.07-.05-.13l.19.11c.05.08-.1.02-.14.01Z"/>
    <path class="cls-1" d="M20.87,2.55c.14.1.16-.1.21-.01l-.14.19-.07-.18Z"/>
    <polygon class="cls-1" points="20.12 3.52 20.1 3.48 20.14 3.51 20.12 3.52"/>
    <path class="cls-1" d="M21.68,2.85l.06-.28c.08.14-.05.31-.06.28Z"/>
    <polygon class="cls-1" points="22.31 3.13 22.29 3 22.48 3.27 22.31 3.13"/>
    <polygon class="cls-1" points="22.83 3.78 22.9 3.77 23.02 4.02 22.83 3.78"/>
    <path class="cls-1" d="M23.52,12.18c-.21.07-.19-.24-.25-.32.28.03-.05.26.25.32Z"/>
    <path class="cls-1" d="M27.39,16.09l-.23-.22c.25.06.05.04.23.22Z"/>
  </g>
</svg>